<svg width="552" height="141" viewBox="0 0 552 141" fill="none" xmlns="http://www.w3.org/2000/svg">
<g clip-path="url(#clip0)">
<path d="M57.932 76.79C57.932 87.95 57.972 99.11 57.902 110.28C57.882 112.81 58.732 114.78 60.512 116.53C67.022 122.96 73.472 129.44 79.922 135.91C80.692 136.69 81.852 137.48 81.082 138.78C80.122 140.41 78.832 140.35 77.472 139.12C73.812 135.81 70.122 132.54 66.452 129.24C62.542 125.72 58.752 122.07 54.722 118.7C52.372 116.73 51.532 114.43 51.542 111.49C51.592 91.11 51.572 70.73 51.572 50.34C51.572 49.61 51.642 48.88 51.552 48.16C51.432 47.13 52.032 45.47 50.382 45.45C48.522 45.43 49.252 47.21 49.082 48.28C49.002 48.75 49.072 49.25 49.072 49.73C49.072 62.75 49.092 75.77 49.052 88.8C49.052 91.63 48.812 94.45 48.732 97.28C48.682 99.03 47.772 99.97 46.142 100.29C43.042 100.88 39.942 101.46 36.832 101.99C34.862 102.32 33.202 101.69 31.712 100.35C22.092 91.7 12.472 83.04 2.79199 74.45C0.841992 72.69 -0.0480076 70.68 0.00199243 68.05C0.0919924 63.04 0.0619924 58.02 0.0119924 53.01C-0.00800757 50.75 0.801992 49.06 2.56199 47.55C20.222 32.48 37.832 17.36 55.432 2.23C57.172 0.73 59.042 0 61.392 0C83.582 0.06 105.772 0.06 127.952 0.03C130.292 0.03 132.112 0.82 133.872 2.33C147.052 13.68 160.272 24.96 173.492 36.27C178.102 40.21 182.702 44.16 187.322 48.1C188.502 49.11 189.122 50.36 189.122 51.92C189.122 57.74 189.102 63.57 189.132 69.39C189.132 71.35 188.192 72.76 186.812 73.99C179.532 80.53 172.252 87.07 164.972 93.61C162.622 95.72 160.162 97.71 157.942 99.94C156.092 101.8 154.012 102.36 151.532 101.91C148.982 101.45 146.432 101 143.892 100.51C140.962 99.94 140.422 99.29 140.412 96.27C140.402 80.58 140.412 64.89 140.402 49.2C140.402 48.31 140.382 47.42 140.242 46.54C140.132 45.85 139.672 45.37 138.892 45.39C138.102 45.41 137.732 45.93 137.662 46.64C137.582 47.52 137.572 48.42 137.572 49.3C137.572 69.76 137.522 90.23 137.612 110.69C137.622 114.25 136.662 116.9 133.802 119.32C126.472 125.55 119.452 132.14 112.302 138.59C111.882 138.97 111.452 139.34 111.002 139.68C110.132 140.33 109.352 140.11 108.632 139.38C107.922 138.66 107.672 137.85 108.302 136.99C108.782 136.34 109.362 135.77 109.932 135.2C116.112 129.02 122.252 122.79 128.512 116.7C130.462 114.8 131.262 112.72 131.252 110.02C131.192 87.78 131.222 65.53 131.222 43.29C131.222 39.33 131.282 39.27 135.342 39.27C137.612 39.27 139.872 39.27 142.142 39.27C146.162 39.27 146.312 39.42 146.322 43.56C146.322 49.71 146.322 55.85 146.322 62C146.322 71.46 146.322 80.93 146.322 90.39C146.322 95.17 150.052 97.26 154.272 94.71C155.912 93.72 157.312 92.31 158.762 91.03C166.332 84.33 173.892 77.61 181.452 70.91C182.612 69.88 183.192 68.64 183.182 67.07C183.152 63.11 183.152 59.14 183.182 55.18C183.192 53.26 182.422 51.85 180.942 50.59C166.542 38.32 152.172 25.99 137.802 13.68C135.532 11.73 133.222 9.82 130.972 7.85C129.602 6.65 128.012 6.39 126.252 6.31C110.232 5.53 94.192 6.11 78.172 5.94C72.912 5.88 67.652 6 62.402 6.32C60.702 6.43 59.252 6.96 57.982 8.05C41.332 22.3 24.682 36.55 8.01199 50.79C6.67199 51.94 6.06199 53.39 6.04199 55.05C5.98199 58.93 5.98199 62.81 6.02199 66.7C6.04199 68.57 6.83199 70.01 8.30199 71.3C16.442 78.45 24.512 85.69 32.572 92.93C34.452 94.62 36.432 95.86 39.082 95.6C41.922 95.32 42.842 94.33 42.842 91.36C42.852 80.52 42.842 69.68 42.842 58.85C42.842 53.59 42.832 48.34 42.842 43.08C42.852 39.61 43.182 39.3 46.542 39.28C49.212 39.28 51.882 39.27 54.562 39.28C57.662 39.3 57.912 39.53 57.912 42.58C57.922 53.98 57.912 65.39 57.912 76.79H57.932Z" fill="#FFC107"/>
<path d="M400.011 76.3497C400.011 84.9897 400.03 93.6397 399.99 102.28C399.99 103.67 400.48 105.52 398.74 106.11C396.92 106.73 394.89 106.75 393.05 105.94C391.96 105.46 391.84 104.26 391.81 103.21C391.74 101.11 391.75 99.0098 391.75 96.9098C391.75 81.3098 391.75 65.7098 391.75 50.1098C391.75 45.8598 392.62 45.1398 396.81 45.6298C398.72 45.8498 399.6 46.9097 400 48.7097C402.03 57.8697 404.58 66.8797 407.31 75.8497C407.49 76.4497 407.521 77.1297 408.171 77.5697C408.921 76.8297 408.58 75.8897 408.59 75.0697C408.62 66.4198 408.59 57.7698 408.62 49.1298C408.62 46.1198 409.121 45.6697 412.201 45.6397C415.591 45.6097 416.47 46.2298 416.47 49.0898C416.5 67.1098 416.471 85.1398 416.511 103.16C416.511 105.39 415.501 106.4 413.391 106.64C410.841 106.94 408.811 105.68 408.071 103.1C406.931 99.1397 405.9 95.1498 404.78 91.1898C403.37 86.2198 401.911 81.2697 400.481 76.3097C400.321 76.3197 400.171 76.3397 400.011 76.3497Z" fill="#FFC107"/>
<path d="M281.38 81.2203C281.38 74.2703 281.33 67.3103 281.4 60.3603C281.44 56.7003 282.04 53.1103 283.71 49.7903C284.1 49.0003 284.56 48.2003 285.17 47.5703C289.51 43.0603 299.7 44.7403 302.25 50.3903C303.53 53.2203 304.2 56.2403 304.24 59.3303C304.45 73.6403 304.96 87.9403 304.72 102.25C304.66 105.98 303.45 107.08 299.82 106.71C297.2 106.44 296.49 105.69 296.47 102.96C296.43 99.1603 296.36 95.3603 296.47 91.5603C296.56 88.6303 294.64 88.8703 292.73 88.8503C290.84 88.8303 289.12 88.8003 289.21 91.5303C289.33 95.2503 289.25 98.9703 289.24 102.69C289.24 106.03 288.54 106.73 285.34 106.75C282.07 106.77 281.34 106.07 281.34 102.8C281.33 95.6003 281.34 88.4103 281.34 81.2103C281.36 81.2103 281.37 81.2103 281.39 81.2103L281.38 81.2203ZM289.24 68.8503C289.24 68.8503 289.2 68.8503 289.18 68.8503C289.18 72.2403 289.18 75.6403 289.18 79.0303C289.18 82.5003 289.2 82.5103 292.72 82.5103C293.12 82.5103 293.53 82.4803 293.93 82.5103C295.64 82.6203 296.47 81.9103 296.46 80.1203C296.41 72.7703 296.44 65.4103 296.39 58.0603C296.38 56.3503 295.98 54.6703 295.16 53.1603C293.99 51.0103 291.83 50.9803 290.6 53.0803C289.64 54.7203 289.25 56.5403 289.23 58.4303C289.2 61.9003 289.23 65.3803 289.23 68.8503H289.24Z" fill="#FFC107"/>
<path d="M218.752 76.0297C218.752 67.3797 218.752 58.7297 218.752 50.0697C218.752 46.0797 219.172 45.6697 223.242 45.6397C225.912 45.6197 228.592 45.5597 231.252 45.6597C237.462 45.8997 241.232 49.4797 241.552 55.6397C241.862 61.5397 241.892 67.4497 239.962 73.1697C239.592 74.2697 239.522 75.3997 239.852 76.5097C241.662 82.5997 241.822 88.9297 242.562 95.1797C242.862 97.7397 242.962 100.34 243.282 102.9C243.512 104.69 243.462 106.14 241.292 106.61C238.562 107.21 236.142 106.29 235.662 104.28C235.362 103.03 235.262 101.72 235.222 100.44C235.012 94.1397 234.442 87.8697 233.662 81.6197C233.402 79.5697 232.722 77.8497 230.172 77.7397C227.272 77.6197 226.582 78.1897 226.572 81.1497C226.552 88.5097 226.572 95.8697 226.552 103.23C226.552 106.11 226.192 106.39 223.032 106.42C219.212 106.45 218.782 106.18 218.772 103.2C218.732 94.1397 218.762 85.0897 218.752 76.0297ZM226.572 61.8297H226.552C226.552 64.4097 226.552 66.9797 226.552 69.5597C226.552 70.4697 226.652 71.3097 227.732 71.6897C230.652 72.7097 233.902 70.7897 234.182 67.6597C234.472 64.3797 234.522 61.0697 234.622 57.7797C234.662 56.5597 234.382 55.3697 233.872 54.2597C232.982 52.3397 230.582 51.2197 228.362 51.6597C225.992 52.1297 226.652 54.0497 226.592 55.5497C226.512 57.6397 226.572 59.7397 226.572 61.8297Z" fill="#FFC107"/>
<path d="M536.139 60.8405C535.759 65.9805 537.639 70.2305 542.609 72.8305C550.109 76.7605 551.449 83.7005 551.369 91.1805C551.339 93.7405 551.179 96.3404 550.549 98.8804C548.219 108.25 539.249 108.49 533.309 105.63C531.559 104.79 530.769 102.96 530.169 101.16C528.959 97.5105 528.539 93.7604 528.649 89.9204C528.699 88.3204 529.429 87.5104 530.989 87.4504C531.959 87.4104 532.929 87.4004 533.899 87.4504C535.639 87.5404 536.549 88.4105 536.539 90.2305C536.529 92.1605 536.379 94.1104 536.869 96.0204C537.279 97.6104 537.999 99.0705 539.759 99.1905C541.659 99.3105 542.349 97.7505 542.679 96.1805C544.489 87.5805 543.669 82.6005 537.009 77.9705C536.679 77.7405 536.389 77.4305 536.049 77.2305C528.999 73.2205 527.949 66.5804 528.369 59.4204C528.529 56.6104 528.799 53.7805 529.589 51.0405C530.319 48.5005 531.859 46.8505 534.369 45.9905C537.039 45.0705 539.769 44.8104 542.509 45.2604C546.379 45.9004 549.019 48.0704 549.869 52.0104C550.339 54.2204 550.659 56.4605 550.679 58.7405C550.689 60.4805 549.899 61.2805 548.179 61.2205C547.289 61.1905 546.399 61.2105 545.509 61.2005C544.019 61.2005 543.249 60.4504 543.279 58.9604C543.319 57.2504 543.079 55.5705 542.599 53.9305C542.169 52.4605 541.289 51.5304 539.639 51.5704C537.879 51.6204 536.949 52.6804 536.729 54.2804C536.449 56.3604 535.969 58.4204 536.139 60.8204V60.8405Z" fill="#FFC107"/>
<path d="M469.875 75.7496C469.875 66.8596 469.875 57.9696 469.875 49.0796C469.875 45.9296 470.155 45.6496 473.365 45.6196C476.925 45.5896 480.465 45.6396 484.025 46.0196C487.675 46.4096 489.775 48.3596 490.865 51.6196C492.175 55.5796 492.575 59.6896 492.265 63.8296C492.005 67.2796 491.735 70.7496 490.985 74.1596C490.155 77.8996 488.715 79.3796 484.935 80.1396C483.265 80.4696 481.585 80.7496 479.875 80.6396C478.005 80.5196 477.275 81.3596 477.285 83.2196C477.335 89.5996 477.315 95.9896 477.295 102.38C477.295 105.98 474.355 107.71 471.055 106.1C469.755 105.47 469.885 104.28 469.885 103.16C469.885 94.0296 469.885 84.8896 469.885 75.7596L469.875 75.7496ZM477.295 62.8796C477.295 62.8796 477.325 62.8796 477.345 62.8796C477.345 65.8696 477.285 68.8596 477.365 71.8396C477.425 74.0096 478.535 74.8596 480.675 74.5796C483.195 74.2496 484.945 72.7096 485.215 69.6696C485.625 65.0196 485.845 60.3096 484.895 55.6796C484.435 53.4096 482.925 51.9996 480.585 51.6696C478.415 51.3596 477.355 52.2296 477.305 54.3996C477.245 57.2296 477.295 60.0496 477.295 62.8796Z" fill="#FFC107"/>
<path d="M253.732 75.94C253.732 67.13 253.722 58.32 253.732 49.51C253.732 45.99 254.132 45.61 257.632 45.61C261.432 45.61 265.242 45.58 269.042 45.64C271.482 45.68 271.862 46.46 271.772 49.89C271.712 52.08 270.562 52.25 268.732 52.16C260.402 51.75 262.142 51.42 261.922 58.28C261.822 61.43 261.632 64.57 261.592 67.72C261.542 71.18 261.782 71.36 265.342 71.37C265.742 71.37 266.152 71.37 266.552 71.37C269.982 71.39 270.622 72.15 270.292 75.61C270.162 76.99 269.532 77.68 268.162 77.71C267.842 77.71 267.512 77.73 267.192 77.73C261.542 77.73 261.482 76.89 261.592 83.39C261.662 87.67 261.872 91.95 261.932 96.22C261.952 97.86 262.602 98.59 264.262 98.53C266.042 98.47 267.822 98.51 269.602 98.53C270.952 98.55 271.722 99.2 271.742 100.6C271.742 100.84 271.752 101.08 271.762 101.33C271.902 106.24 271.832 106.33 266.892 106.35C263.652 106.37 260.422 106.37 257.182 106.35C254.122 106.34 253.712 105.95 253.712 102.82C253.692 93.85 253.712 84.88 253.712 75.91H253.752L253.732 75.94Z" fill="#FFC107"/>
<path d="M502.491 75.9997C502.491 67.2697 502.491 58.5497 502.491 49.8197C502.491 45.8897 502.801 45.5997 506.821 45.6197C510.221 45.6197 513.621 45.5897 517.011 45.6597C519.471 45.6997 519.981 46.4697 520.071 49.2397C520.141 51.4297 519.081 52.1297 517.101 51.9997C517.021 51.9997 516.941 51.9997 516.861 51.9997C512.481 52.0797 510.291 54.2763 510.291 58.5897C510.291 61.8997 510.401 65.2197 510.261 68.5297C510.161 70.7997 511.091 71.6397 513.251 71.4097C513.891 71.3397 514.541 71.3897 515.191 71.4097C517.911 71.5197 518.491 72.1697 518.591 74.6997C518.691 77.1697 517.291 77.7097 515.231 77.6997C509.991 77.6697 510.281 77.4497 510.291 82.7997C510.291 86.8397 510.291 90.8797 510.311 94.9197C510.321 98.4497 510.381 98.5097 514.041 98.5397C514.691 98.5397 515.331 98.5497 515.981 98.5597C519.601 98.5997 521.561 102.03 519.761 105.18C519.311 105.97 518.551 106.26 517.711 106.27C513.421 106.31 509.141 106.36 504.851 106.34C502.731 106.34 502.461 104.83 502.461 103.15C502.461 94.0997 502.461 85.0497 502.461 75.9997H502.471H502.491Z" fill="#FFC107"/>
<path d="M375.254 79.6499C375.254 87.4899 375.264 95.3199 375.254 103.16C375.254 105.98 374.754 106.36 371.444 106.38C367.924 106.4 367.394 106.01 367.384 103.16C367.364 87.7299 367.384 72.2999 367.384 56.8699C367.384 54.2899 366.114 52.9766 363.574 52.9299C360.244 52.8599 359.234 51.6499 359.754 48.3799C360.014 46.7199 360.864 45.6799 362.614 45.6699C368.434 45.6399 374.264 45.6299 380.084 45.6699C382.424 45.6899 383.004 47.2399 383.004 49.2799C383.004 51.2999 382.504 52.7299 380.134 52.9399C375.264 53.3799 375.264 53.4299 375.264 58.3299C375.264 65.4399 375.264 72.5499 375.264 79.6599L375.254 79.6499Z" fill="#FFC107"/>
<path d="M316.363 76.0402C316.363 67.1402 316.363 58.2502 316.363 49.3502C316.363 47.9902 316.113 46.3102 317.813 45.8602C319.663 45.3702 321.663 45.2202 323.483 46.1802C324.103 46.5102 324.203 47.2202 324.223 47.8802C324.243 48.6902 324.253 49.5002 324.253 50.3102C324.373 65.3502 324.533 80.3902 324.593 95.4302C324.593 97.7202 325.373 98.7502 327.713 98.5402C328.833 98.4402 329.983 98.5503 331.113 98.5103C333.153 98.4303 334.353 99.1603 334.363 101.41C334.383 105.23 333.723 106.34 331.053 106.38C327.163 106.44 323.273 106.33 319.393 106.45C317.023 106.52 316.293 105.45 316.313 103.23C316.373 94.1703 316.343 85.1103 316.343 76.0503H316.363V76.0402Z" fill="#FFC107"/>
<path d="M343.055 76.0404C343.055 67.2304 343.055 58.4204 343.055 49.6104C343.055 48.2704 342.675 46.5704 344.265 45.9704C346.075 45.2804 348.095 45.2404 349.935 46.0704C350.945 46.5304 350.965 47.6304 350.965 48.6204C350.965 66.8904 350.945 85.1504 350.945 103.42C350.945 105.4 350.075 106.46 348.025 106.41C347.535 106.4 347.055 106.41 346.565 106.41C343.385 106.39 343.035 106.08 343.035 102.96C343.025 95.9304 343.035 88.9004 343.045 81.8604C343.045 79.9204 343.045 77.9804 343.045 76.0404H343.055Z" fill="#FFC107"/>
<path d="M428.584 75.94C428.584 66.97 428.584 58 428.584 49.04C428.584 46.04 429.014 45.67 432.194 45.64C435.694 45.61 436.354 46.07 436.364 49.09C436.394 67.03 436.384 84.96 436.364 102.9C436.364 104.18 436.434 105.8 434.874 106.14C433.024 106.55 430.994 106.92 429.234 105.81C428.314 105.23 428.584 104.05 428.584 103.1C428.574 94.05 428.584 85 428.584 75.95V75.94Z" fill="#FFC107"/>
<path d="M95.6039 96.1597C97.2339 96.2397 99.7439 95.8797 102.224 96.5097C106.564 97.6097 108.424 101.07 106.744 105.21C105.024 109.45 101.324 111.99 98.0239 114.79C94.5339 117.75 95.2439 118.29 91.1439 114.8C88.6739 112.7 86.2739 110.52 84.1739 108.07C82.2739 105.86 81.0639 103.21 82.2339 100.25C83.3839 97.3397 86.0639 96.4497 88.9139 96.1897C90.8439 96.0197 92.7939 96.1597 95.6039 96.1597Z" fill="#FFC107"/>
<path d="M116.58 62.2398C113.04 62.2098 110.73 59.8398 110.75 56.2598C110.77 52.8598 113.33 50.2598 116.67 50.2598C120.06 50.2598 122.82 53.0898 122.73 56.4698C122.64 59.8098 120.02 62.2598 116.58 62.2298V62.2398Z" fill="#FFC107"/>
<path d="M72.3703 62.2102C69.0903 62.1602 66.5803 59.6202 66.5703 56.3502C66.5603 52.9402 69.0903 50.4502 72.5703 50.4502C75.9403 50.4502 78.4503 53.0902 78.3503 56.5202C78.2503 59.7902 75.6703 62.2502 72.3803 62.2002L72.3703 62.2102Z" fill="#FFC107"/>
<path d="M435.049 35.5596C434.829 37.8796 434.039 39.9596 432.419 41.6696C431.859 42.2596 431.219 42.8596 430.309 42.4696C429.359 42.0596 429.099 41.1596 429.189 40.2396C429.389 38.0196 430.149 35.9796 431.579 34.2496C432.189 33.5096 432.889 32.6396 434.009 33.0496C435.159 33.4696 434.949 34.5996 435.049 35.5596Z" fill="#FFC107"/>
</g>
<defs>
<clipPath id="clip0">
<rect width="551.38" height="140.06" fill="white"/>
</clipPath>
</defs>
</svg>
